<?xml version="1.0" encoding="UTF-8"?>
<svg xmlns="http://www.w3.org/2000/svg" xmlns:xlink="http://www.w3.org/1999/xlink" width="22pt" height="22pt" viewBox="0 0 22 22" version="1.1">
<g id="surface1">
<path fill="#818384" d="M 16.5 17.050781 L 5.5 17.050781 C 5.195312 17.050781 4.949219 16.804688 4.949219 16.5 C 4.949219 14.03125 6.957031 12.023438 9.429688 12.023438 L 12.570312 12.023438 C 15.042969 12.023438 17.050781 14.03125 17.050781 16.5 C 17.050781 16.804688 16.804688 17.050781 16.5 17.050781 M 11 4.949219 C 12.546875 4.949219 13.800781 6.207031 13.800781 7.753906 C 13.800781 9.296875 12.546875 10.554688 11 10.554688 C 9.453125 10.554688 8.199219 9.296875 8.199219 7.753906 C 8.199219 6.207031 9.453125 4.949219 11 4.949219 M 17.601562 2.199219 L 4.398438 2.199219 C 3.1875 2.199219 2.199219 3.1875 2.199219 4.398438 L 2.199219 17.601562 C 2.199219 18.8125 3.1875 19.800781 4.398438 19.800781 L 17.601562 19.800781 C 18.8125 19.800781 19.800781 18.8125 19.800781 17.601562 L 19.800781 4.398438 C 19.800781 3.1875 18.8125 2.199219 17.601562 2.199219 "/>
</g>
</svg>
