<?xml version="1.0" encoding="UTF-8"?>
<svg xmlns="http://www.w3.org/2000/svg" xmlns:xlink="http://www.w3.org/1999/xlink" width="13pt" height="13pt" viewBox="0 0 13 13" version="1.1">
<g id="surface1">
<path fill="#d7dadc" d="M 12.1875 7.3125 L 12.1875 6.5 L 0.8125 6.5 L 0.8125 11.375 C 0.8125 11.828125 1.171875 12.1875 1.625 12.1875 L 11.375 12.1875 C 11.828125 12.1875 12.1875 11.828125 12.1875 11.375 L 2.015625 11.375 C 1.820312 11.375 1.625 11.210938 1.625 10.984375 C 1.625 10.757812 1.820312 10.59375 2.015625 10.59375 L 12.1875 10.59375 L 12.1875 9.75 L 2.015625 9.75 C 1.820312 9.75 1.625 9.585938 1.625 9.359375 C 1.625 9.132812 1.820312 8.96875 2.015625 8.96875 L 12.1875 8.96875 L 12.1875 8.125 L 2.015625 8.125 C 1.820312 8.125 1.625 7.960938 1.625 7.734375 C 1.625 7.507812 1.820312 7.34375 2.015625 7.34375 L 12.1875 7.34375 Z M 12.1875 7.3125 "/>
<path fill="#d7dadc" d="M 7.3125 1.949219 C 7.3125 2.40625 6.953125 2.761719 6.5 2.761719 C 6.046875 2.761719 5.6875 2.40625 5.6875 1.949219 C 5.6875 1.496094 6.5 0 6.5 0 C 6.5 0 7.3125 1.496094 7.3125 1.949219 Z M 7.3125 1.949219 "/>
<path fill="#818384" d="M 6.5 4.875 C 6.273438 4.875 6.078125 4.679688 6.078125 4.484375 L 6.078125 3.671875 C 6.078125 3.445312 6.273438 3.28125 6.46875 3.28125 C 6.695312 3.28125 6.859375 3.476562 6.859375 3.671875 L 6.859375 4.484375 C 6.890625 4.710938 6.726562 4.875 6.5 4.875 Z M 6.5 4.875 "/>
<path fill="#818384" d="M 7.410156 3.671875 L 7.410156 4.421875 C 7.410156 4.875 7.085938 5.296875 6.597656 5.363281 C 6.078125 5.425781 5.621094 5.003906 5.621094 4.484375 L 5.621094 2.859375 C 5.621094 2.859375 5.621094 2.828125 5.621094 2.828125 L 5.363281 2.699219 C 5.070312 2.566406 4.710938 2.601562 4.484375 2.828125 L 0.8125 6.011719 L 12.1875 6.011719 Z M 7.410156 3.671875 "/>
</g>
</svg>
