<?xml version="1.0" encoding="UTF-8"?>
<svg xmlns="http://www.w3.org/2000/svg" xmlns:xlink="http://www.w3.org/1999/xlink" width="16pt" height="16pt" viewBox="0 0 16 22" version="1.1">
<g id="surface1">
<path class="moon-path" fill="rgb(108, 117, 125)" d="M 17.589844 16.386719 C 15.039062 15.855469 13.207031 13.609375 13.199219 11 C 13.203125 8.390625 15.039062 6.144531 17.589844 5.609375 C 18.03125 5.523438 18.371094 5.179688 18.453125 4.738281 C 18.539062 4.296875 18.34375 3.851562 17.96875 3.609375 C 16.546875 2.691406 14.890625 2.199219 13.199219 2.199219 C 8.347656 2.199219 4.398438 6.148438 4.398438 11 C 4.398438 15.851562 8.347656 19.800781 13.199219 19.800781 C 14.890625 19.800781 16.546875 19.308594 17.96875 18.390625 C 18.34375 18.144531 18.535156 17.699219 18.453125 17.261719 C 18.367188 16.824219 18.027344 16.476562 17.589844 16.386719 "/>
</g>
</svg>
