<?xml version="1.0" encoding="UTF-8"?>
<svg xmlns="http://www.w3.org/2000/svg"  xmlns:xlink="http://www.w3.org/1999/xlink" width="18pt" height="18pt" viewBox="0 0 18 18" version="1.1">
<g id="surface1">
<path fill="rgb(108, 117, 125)" d="M 10.570312 10.265625 L 7.863281 10.265625 C 5.625 10.265625 3.792969 12.089844 3.792969 14.335938 C 3.792969 14.710938 4.097656 15.011719 4.472656 15.011719 L 13.960938 15.011719 C 14.335938 15.011719 14.636719 14.710938 14.636719 14.335938 C 14.636719 12.089844 12.816406 10.265625 10.570312 10.265625 Z M 9.214844 9.410156 C 10.664062 9.410156 11.835938 8.238281 11.835938 6.789062 L 11.835938 6.113281 C 11.835938 4.664062 10.664062 3.492188 9.214844 3.492188 C 7.769531 3.492188 6.59375 4.664062 6.59375 6.113281 L 6.59375 6.789062 C 6.59375 8.238281 7.769531 9.410156 9.214844 9.410156 Z M 9.214844 9.410156 "/>
</g>
</svg>
