
<?xml version="1.0" encoding="UTF-8"?>
<svg xmlns="http://www.w3.org/2000/svg" xmlns:xlink="http://www.w3.org/1999/xlink" width="14pt" height="14pt" viewBox="-2 0 26 19" version="1.1">
<g id="surface1">
<path fill="#818384" d="M 18.707031 16.691406 L 22.042969 19.921875 C 22.640625 20.496094 22.65625 21.449219 22.078125 22.042969 C 21.503906 22.640625 20.550781 22.65625 19.957031 22.078125 L 16.570312 18.804688 C 12.503906 21.726562 6.871094 21.027344 3.636719 17.199219 C 0.40625 13.371094 0.660156 7.703125 4.222656 4.179688 C 7.785156 0.65625 13.457031 0.464844 17.25 3.742188 C 21.039062 7.015625 21.675781 12.65625 18.707031 16.691406 Z M 17.566406 11.039062 C 17.574219 8.394531 15.980469 6.003906 13.535156 4.988281 C 11.089844 3.972656 8.277344 4.53125 6.402344 6.402344 C 4.53125 8.277344 3.972656 11.089844 4.988281 13.535156 C 6.003906 15.980469 8.394531 17.574219 11.039062 17.566406 C 14.640625 17.5625 17.5625 14.640625 17.566406 11.039062 Z M 17.566406 11.039062 "/>
</g>
</svg>
