<?xml version="1.0" encoding="UTF-8"?>
<svg xmlns="http://www.w3.org/2000/svg" xmlns:xlink="http://www.w3.org/1999/xlink" width="16pt" height="16pt" viewBox="0 0 16 23" version="1.1">
<g id="surface1">
<path class="coin-path" fill="rgb(108, 117, 125)" d="M 11 1.648438 C 16.15625 1.648438 20.351562 5.84375 20.351562 11 C 20.351562 16.15625 16.15625 20.351562 11 20.351562 C 5.84375 20.351562 1.648438 16.15625 1.648438 11 C 1.648438 5.84375 5.84375 1.648438 11 1.648438 Z M 8.667969 13.335938 C 7.378906 12.046875 7.378906 9.953125 8.667969 8.667969 C 9.914062 7.421875 12.085938 7.421875 13.332031 8.667969 C 13.761719 9.097656 14.460938 9.097656 14.886719 8.667969 C 15.320312 8.238281 15.320312 7.539062 14.886719 7.113281 C 13.851562 6.070312 12.46875 5.5 11 5.5 C 9.53125 5.5 8.148438 6.070312 7.113281 7.113281 C 4.96875 9.253906 4.96875 12.746094 7.113281 14.890625 C 8.148438 15.929688 9.53125 16.5 11 16.5 C 12.46875 16.5 13.851562 15.929688 14.886719 14.890625 C 15.320312 14.460938 15.320312 13.761719 14.886719 13.335938 C 14.460938 12.902344 13.761719 12.902344 13.332031 13.335938 C 12.085938 14.582031 9.914062 14.582031 8.667969 13.335938 Z M 8.667969 13.335938 "/>
</g>
</svg>
