<?xml version="1.0" encoding="UTF-8"?>
<svg class="reddit-logo" xmlns="http://www.w3.org/2000/svg" xmlns:xlink="http://www.w3.org/1999/xlink" width="24pt" height="24pt" viewBox="0 0 24 24" version="1.1">
<g id="surface1">
<path style=" stroke:none;fill-rule:nonzero;fill:rgb(100%,27.058824%,0%);fill-opacity:1;" d="M 24 12 C 24 18.628906 18.628906 24 12 24 C 5.371094 24 0 18.628906 0 12 C 0 5.371094 5.371094 0 12 0 C 18.628906 0 24 5.371094 24 12 Z M 24 12 "/>
<path style=" stroke:none;fill-rule:nonzero;fill:rgb(100%,100%,100%);fill-opacity:1;" d="M 20.003906 12 C 19.976562 11.308594 19.550781 10.699219 18.910156 10.441406 C 18.269531 10.179688 17.535156 10.320312 17.039062 10.800781 C 15.675781 9.871094 14.070312 9.359375 12.417969 9.324219 L 13.199219 5.582031 L 15.769531 6.121094 C 15.832031 6.707031 16.308594 7.160156 16.898438 7.191406 C 17.488281 7.222656 18.011719 6.816406 18.136719 6.242188 C 18.257812 5.667969 17.945312 5.085938 17.394531 4.871094 C 16.84375 4.660156 16.222656 4.878906 15.921875 5.386719 L 12.984375 4.800781 C 12.886719 4.777344 12.785156 4.796875 12.703125 4.851562 C 12.617188 4.902344 12.558594 4.988281 12.539062 5.089844 L 11.652344 9.253906 C 9.980469 9.277344 8.355469 9.792969 6.972656 10.730469 C 6.464844 10.25 5.726562 10.121094 5.089844 10.390625 C 4.449219 10.660156 4.03125 11.28125 4.019531 11.976562 C 4.007812 12.671875 4.410156 13.308594 5.039062 13.597656 C 5.027344 13.773438 5.027344 13.949219 5.039062 14.125 C 5.039062 16.808594 8.171875 18.996094 12.035156 18.996094 C 15.898438 18.996094 19.03125 16.808594 19.03125 14.125 C 19.046875 13.949219 19.046875 13.773438 19.03125 13.597656 C 19.636719 13.292969 20.015625 12.675781 20.003906 12 Z M 8.003906 13.199219 C 8.003906 12.535156 8.539062 12 9.207031 12 C 9.867188 12 10.402344 12.535156 10.402344 13.199219 C 10.402344 13.863281 9.867188 14.398438 9.207031 14.398438 C 8.539062 14.398438 8.003906 13.863281 8.003906 13.199219 Z M 14.976562 16.5 C 14.125 17.140625 13.078125 17.464844 12.011719 17.421875 C 10.949219 17.464844 9.898438 17.140625 9.046875 16.5 C 8.941406 16.371094 8.949219 16.183594 9.070312 16.066406 C 9.1875 15.945312 9.375 15.9375 9.503906 16.042969 C 10.222656 16.574219 11.105469 16.839844 12 16.800781 C 12.894531 16.847656 13.777344 16.589844 14.507812 16.070312 C 14.640625 15.9375 14.855469 15.941406 14.980469 16.074219 C 15.113281 16.207031 15.109375 16.417969 14.976562 16.546875 Z M 14.761719 14.449219 C 14.097656 14.449219 13.558594 13.910156 13.558594 13.246094 C 13.558594 12.585938 14.097656 12.046875 14.761719 12.046875 C 15.421875 12.046875 15.960938 12.585938 15.960938 13.246094 C 15.972656 13.574219 15.847656 13.894531 15.621094 14.132812 C 15.394531 14.367188 15.074219 14.5 14.746094 14.496094 Z M 14.761719 14.449219 "/>
</g>
</svg>
