<?xml version="1.0" encoding="UTF-8"?>
<svg xmlns="http://www.w3.org/2000/svg" xmlns:xlink="http://www.w3.org/1999/xlink" width="10pt" height="10pt" viewBox="0 0 10 10" version="1.1">
<g id="surface1">
<path fill="#7e8081" d="M 8.398438 0.675781 L 1.597656 0.675781 C 0.886719 0.675781 0.308594 1.253906 0.308594 1.964844 L 0.308594 6.125 C 0.308594 6.835938 0.882812 7.414062 1.59375 7.414062 L 1.59375 9.304688 L 4.308594 7.414062 L 8.398438 7.414062 C 9.109375 7.414062 9.6875 6.835938 9.6875 6.125 L 9.6875 1.964844 C 9.6875 1.253906 9.109375 0.675781 8.398438 0.675781 Z M 9.136719 6.125 C 9.136719 6.535156 8.808594 6.867188 8.398438 6.867188 L 4.136719 6.867188 L 2.140625 8.253906 L 2.140625 6.867188 L 1.597656 6.867188 C 1.1875 6.867188 0.859375 6.535156 0.859375 6.125 L 0.859375 1.964844 C 0.859375 1.554688 1.1875 1.222656 1.597656 1.222656 L 8.398438 1.222656 C 8.808594 1.222656 9.136719 1.554688 9.136719 1.964844 Z M 9.136719 6.125 "/>
<path fill="#7e8081" d="M 2.820312 2.617188 L 7.175781 2.617188 L 7.175781 3.164062 L 2.820312 3.164062 Z M 2.820312 2.617188 "/>
<path fill="#7e8081" d="M 2.820312 3.789062 L 7.175781 3.789062 L 7.175781 4.339844 L 2.820312 4.339844 Z M 2.820312 3.789062 "/>
<path fill="#7e8081" d="M 2.820312 4.960938 L 7.175781 4.960938 L 7.175781 5.511719 L 2.820312 5.511719 Z M 2.820312 4.960938 "/>
</g>
</svg>
