<?xml version="1.0" encoding="UTF-8"?>
<svg xmlns="http://www.w3.org/2000/svg" xmlns:xlink="http://www.w3.org/1999/xlink" width="15pt" height="15pt" viewBox="0 0 15 15" version="1.1">
<g id="surface1">
<path id="hover-nav-svg" fill="#818384" d="M 7.734375 0.457031 C 7.597656 0.355469 7.410156 0.355469 7.273438 0.457031 C 7.058594 0.621094 2.0625 4.550781 2.0625 8.601562 C 2.019531 10.597656 2.886719 12.503906 4.417969 13.785156 C 4.558594 13.902344 4.761719 13.902344 4.902344 13.78125 C 5.039062 13.664062 5.074219 13.460938 4.980469 13.304688 C 4.707031 12.851562 4.566406 12.332031 4.566406 11.804688 C 4.628906 9.839844 5.753906 8.066406 7.5 7.171875 C 9.257812 8.074219 10.382812 9.867188 10.433594 11.84375 C 10.433594 12.371094 10.292969 12.890625 10.019531 13.34375 C 9.925781 13.5 9.960938 13.703125 10.097656 13.820312 C 10.238281 13.9375 10.441406 13.941406 10.582031 13.824219 C 12.113281 12.542969 12.980469 10.636719 12.9375 8.640625 C 12.9375 4.550781 7.941406 0.621094 7.734375 0.457031 Z M 7.734375 0.457031 "/>
</g>
</svg>
