<?xml version="1.0" encoding="UTF-8"?>
<svg xmlns="http://www.w3.org/2000/svg" xmlns:xlink="http://www.w3.org/1999/xlink" width="12pt" height="18pt" viewBox="0 0 13 16" version="1.1">
<g id="surface1">
<path id="hover-nav-svg-red" fill="#818384" d="M 11.320312 6.0625 L 6.714844 0.105469 C 6.664062 0.0390625 6.582031 0 6.5 0 C 6.417969 0 6.335938 0.0390625 6.285156 0.105469 L 1.679688 6.0625 C 1.617188 6.144531 1.605469 6.257812 1.652344 6.347656 C 1.699219 6.441406 1.792969 6.5 1.894531 6.5 L 4.332031 6.5 L 4.332031 12.730469 C 4.332031 12.878906 4.453125 13 4.605469 13 L 8.394531 13 C 8.546875 13 8.667969 12.878906 8.667969 12.730469 L 8.667969 6.5 L 11.105469 6.5 C 11.207031 6.5 11.300781 6.441406 11.347656 6.347656 C 11.394531 6.257812 11.382812 6.144531 11.320312 6.0625 Z M 11.320312 6.0625 "/>
</g>
</svg>
