<svg viewBox="0 0 20 20" height="14pt" width="14pt" xmlns="http://www.w3.org/2000/svg"><g><path fill="grey" d="M2.1952,13.9279 C2.9452,13.9279 3.5382,14.3119 3.8382,14.8939 L2.8962,15.3249 C2.7702,15.0489 2.4882,14.8519 2.1232,14.8519 C1.6192,14.8519 1.2232,15.3189 1.2232,15.9489 C1.2232,16.5849 1.6252,17.0409 2.1172,17.0409 C2.4882,17.0409 2.7772,16.8369 2.9262,16.5369 L3.9162,16.8909 C3.6102,17.5559 2.9802,17.9639 2.1952,17.9639 C1.0492,17.9639 0.1202,17.0759 0.1202,15.9489 C0.1202,14.8279 1.0492,13.9279 2.1952,13.9279 Z M11.5004,14.5 C12.3294,14.5 13.0004,15.171 13.0004,16 C13.0004,16.829 12.3294,17.5 11.5004,17.5 L6.5004,17.5 C5.6714,17.5 5.0004,16.829 5.0004,16 C5.0004,15.171 5.6714,14.5 6.5004,14.5 L11.5004,14.5 Z M1.8953,8.0003 C2.8063,8.0003 3.5503,8.2643 3.5503,9.0313 C3.5503,9.3433 3.3523,9.5893 3.0763,9.7813 C3.4483,9.9553 3.7243,10.2253 3.7243,10.6623 C3.7243,11.5179667 2.93757778,11.8598556 2.22929983,11.8952023 L2.1053,11.8983 L0.3723,11.8983 L0.3723,8.0003 L1.8953,8.0003 Z M18.5004,8.5 C19.3294,8.5 20.0004,9.171 20.0004,10 C20.0004,10.829 19.3294,11.5 18.5004,11.5 L6.5004,11.5 C5.6714,11.5 5.0004,10.829 5.0004,10 C5.0004,9.171 5.6714,8.5 6.5004,8.5 L18.5004,8.5 Z M1.8623,8.8693 L1.4753,8.8693 L1.4753,11.0283 L1.9843,11.0283 C2.3013,11.0283 2.5853,10.7603 2.5853,10.4623 C2.5853,10.0713909 2.27786198,9.92097769 2.01460128,9.89686048 L1.9373,9.8933 L1.9373,9.7853 C2.0923,9.7853 2.4353,9.6783 2.4353,9.3333 C2.4353,8.9793 2.1923,8.8693 1.8623,8.8693 Z M2.783,1.9997 L4.096,5.8977 L2.963,5.8977 C2.963,5.8977 2.147,3.3737 2.063,3.0137 L2.063,3.0137 L2.039,3.0137 C1.955,3.3737 1.127,5.8977 1.127,5.8977 L1.127,5.8977 L-2.25597319e-13,5.8977 L1.319,1.9997 L2.783,1.9997 Z M15.5004,2.5 C16.3294,2.5 17.0004,3.171 17.0004,4 C17.0004,4.829 16.3294,5.5 15.5004,5.5 L6.5004,5.5 C5.6714,5.5 5.0004,4.829 5.0004,4 C5.0004,3.171 5.6714,2.5 6.5004,2.5 L15.5004,2.5 Z"></path></g></svg>